<svg width="24" height="23" viewBox="0 0 24 23" fill="none" xmlns="http://www.w3.org/2000/svg">
<path fill-rule="evenodd" clip-rule="evenodd" d="M17.25 2C16.0074 2 15 3.00736 15 4.25C15 5.49264 16.0074 6.5 17.25 6.5C18.4926 6.5 19.5 5.49264 19.5 4.25C19.5 3.00736 18.4926 2 17.25 2ZM13.575 3.5C13.9225 1.78832 15.4358 0.5 17.25 0.5C19.0642 0.5 20.5775 1.78832 20.925 3.5H24V5H20.925C20.5775 6.71168 19.0642 8 17.25 8C15.4358 8 13.9225 6.71168 13.575 5H0V3.5H13.575ZM6.75 9.5C5.50736 9.5 4.5 10.5074 4.5 11.75C4.5 12.9926 5.50736 14 6.75 14C7.99264 14 9 12.9926 9 11.75C9 10.5074 7.99264 9.5 6.75 9.5ZM3.07501 11C3.42247 9.28832 4.93578 8 6.75 8C8.56422 8 10.0775 9.28832 10.425 11H24V12.5H10.425C10.0775 14.2117 8.56422 15.5 6.75 15.5C4.93578 15.5 3.42247 14.2117 3.07501 12.5H0V11H3.07501ZM17.25 17C16.0074 17 15 18.0074 15 19.25C15 20.4926 16.0074 21.5 17.25 21.5C18.4926 21.5 19.5 20.4926 19.5 19.25C19.5 18.0074 18.4926 17 17.25 17ZM13.575 18.5C13.9225 16.7883 15.4358 15.5 17.25 15.5C19.0642 15.5 20.5775 16.7883 20.925 18.5H24V20H20.925C20.5775 21.7117 19.0642 23 17.25 23C15.4358 23 13.9225 21.7117 13.575 20H0V18.5H13.575Z" fill="#718096"/>
</svg>
